#tb 0: 1/25
#media_type 0: video
#codec_id 0: rawvideo
#dimensions 0: 176x144
#sar 0: 0/1
0,          0,          0,        1,    38016, 0xc805351d
0,          1,          1,        1,    38016, 0xa0b41fef
0,          2,          2,        1,    38016, 0x965cf070
0,          3,          3,        1,    38016, 0x4552af45
0,          4,          4,        1,    38016, 0x8429a576
0,          5,          5,        1,    38016, 0xf6df8fc0
0,          6,          6,        1,    38016, 0x5d85554c
0,          7,          7,        1,    38016, 0x9c9d5b96
0,          8,          8,        1,    38016, 0xbc4a4b71
0,          9,          9,        1,    38016, 0xae4d3fc8
0,         10,         10,        1,    38016, 0xf4da7f25
0,         11,         11,        1,    38016, 0xf7d89a46
0,         12,         12,        1,    38016, 0x204977fd
0,         13,         13,        1,    38016, 0xa505b626
0,         14,         14,        1,    38016, 0xc7b8b3f8
0,         15,         15,        1,    38016, 0x96929e05
0,         16,         16,        1,    38016, 0xfcfab8cc
0,         17,         17,        1,    38016, 0x750caf2d
0,         18,         18,        1,    38016, 0xa2c682ca
0,         19,         19,        1,    38016, 0x3dcd8f07
0,         20,         20,        1,    38016, 0x48fb69b3
0,         21,         21,        1,    38016, 0x128e3310
0,         22,         22,        1,    38016, 0x03803338
0,         23,         23,        1,    38016, 0x11362bda
0,         24,         24,        1,    38016, 0xc672229a
0,         25,         25,        1,    38016, 0x68e540d0
0,         26,         26,        1,    38016, 0x9d3a3deb
0,         27,         27,        1,    38016, 0x53b233af
0,         28,         28,        1,    38016, 0x3c6767eb
0,         29,         29,        1,    38016, 0x2a8d75f2
0,         30,         30,        1,    38016, 0x006f63cc
0,         31,         31,        1,    38016, 0x3652a79e
0,         32,         32,        1,    38016, 0x42f8c0fa
0,         33,         33,        1,    38016, 0x052eb292
0,         34,         34,        1,    38016, 0xbe7de0e7
0,         35,         35,        1,    38016, 0xf9f9d46f
0,         36,         36,        1,    38016, 0xb6d9b200
0,         37,         37,        1,    38016, 0xc3bcd2d2
0,         38,         38,        1,    38016, 0x23b5c8c2
0,         39,         39,        1,    38016, 0x67caaf99
0,         40,         40,        1,    38016, 0xb365cd31
0,         41,         41,        1,    38016, 0x7cabc68f
0,         42,         42,        1,    38016, 0xca8bb87a
0,         43,         43,        1,    38016, 0x66a4be22
0,         44,         44,        1,    38016, 0x2d10c1b0
0,         45,         45,        1,    38016, 0xd1548835
0,         46,         46,        1,    38016, 0x8b15b359
0,         47,         47,        1,    38016, 0x2337b654
0,         48,         48,        1,    38016, 0x56cfac2b
0,         49,         49,        1,    38016, 0x7ad4c642
0,         50,         50,        1,    38016, 0x6666c353
0,         51,         51,        1,    38016, 0x053fb0f2
0,         52,         52,        1,    38016, 0x2547c115
0,         53,         53,        1,    38016, 0xf202c045
0,         54,         54,        1,    38016, 0x94a8b95f
0,         55,         55,        1,    38016, 0x439ccb13
0,         56,         56,        1,    38016, 0xdfe4d54f
0,         57,         57,        1,    38016, 0x2a0aceae
0,         58,         58,        1,    38016, 0x1293dbd5
0,         59,         59,        1,    38016, 0x9a62d994
0,         60,         60,        1,    38016, 0x65539ad7
0,         61,         61,        1,    38016, 0xc415ad58
0,         62,         62,        1,    38016, 0x47bb9417
0,         63,         63,        1,    38016, 0x92b745ea
0,         64,         64,        1,    38016, 0x8fe8646e
0,         65,         65,        1,    38016, 0x2b94857a
0,         66,         66,        1,    38016, 0x12ac9aa4
0,         67,         67,        1,    38016, 0x856bf0ea
0,         68,         68,        1,    38016, 0xdbb32674
0,         69,         69,        1,    38016, 0x96b53747
0,         70,         70,        1,    38016, 0x875a7548
0,         71,         71,        1,    38016, 0xdba4985c
0,         72,         72,        1,    38016, 0x47cbb86c
0,         73,         73,        1,    38016, 0x32dcfb99
0,         74,         74,        1,    38016, 0x18b53b26
0,         75,         75,        1,    38016, 0x2f0f3e49
0,         76,         76,        1,    38016, 0x27b1880d
0,         77,         77,        1,    38016, 0xbcc19dac
0,         78,         78,        1,    38016, 0x7b6caeb1
0,         79,         79,        1,    38016, 0xf3eece06
0,         80,         80,        1,    38016, 0x7d93d4c9
0,         81,         81,        1,    38016, 0xe6b8d923
0,         82,         82,        1,    38016, 0xf47ce844
0,         83,         83,        1,    38016, 0x74fce21c
0,         84,         84,        1,    38016, 0x8e87d8cd
0,         85,         85,        1,    38016, 0x9675d3ce
0,         86,         86,        1,    38016, 0xd797ec75
0,         87,         87,        1,    38016, 0x70aeeef1
0,         88,         88,        1,    38016, 0x47baef32
0,         89,         89,        1,    38016, 0x5054ec56
0,         90,         90,        1,    38016, 0x43b6a0f7
0,         91,         91,        1,    38016, 0x95dfb688
0,         92,         92,        1,    38016, 0xc878a574
0,         93,         93,        1,    38016, 0xeb928019
0,         94,         94,        1,    38016, 0x304b7fec
0,         95,         95,        1,    38016, 0x02cd7ea4
0,         96,         96,        1,    38016, 0x505f7a7a
0,         97,         97,        1,    38016, 0x09f59eaf
0,         98,         98,        1,    38016, 0x513faaf7
0,         99,         99,        1,    38016, 0xbd0daaa8
0,        100,        100,        1,    38016, 0x8012be0f
0,        101,        101,        1,    38016, 0xb663aa15
0,        102,        102,        1,    38016, 0xd138981a
0,        103,        103,        1,    38016, 0xc16b98a2
0,        104,        104,        1,    38016, 0xf43eb8f8
0,        105,        105,        1,    38016, 0xea22a35b
0,        106,        106,        1,    38016, 0x9a0be0bb
0,        107,        107,        1,    38016, 0x2a77ff9d
0,        108,        108,        1,    38016, 0x2e350431
0,        109,        109,        1,    38016, 0x9d0335ba
0,        110,        110,        1,    38016, 0x62f23f21
0,        111,        111,        1,    38016, 0x3e973351
0,        112,        112,        1,    38016, 0x9d8f4ac5
0,        113,        113,        1,    38016, 0x91e132ba
0,        114,        114,        1,    38016, 0xfd04f69a
0,        115,        115,        1,    38016, 0x481a1778
0,        116,        116,        1,    38016, 0x27fa1dc4
0,        117,        117,        1,    38016, 0x23ae0a6a
0,        118,        118,        1,    38016, 0xc3ec426a
0,        119,        119,        1,    38016, 0xc2a54ac1
0,        120,        120,        1,    38016, 0xd88d3691
0,        121,        121,        1,    38016, 0x46014ba7
0,        122,        122,        1,    38016, 0xbf902815
0,        123,        123,        1,    38016, 0x2af5ee16
0,        124,        124,        1,    38016, 0xd183dc64
0,        125,        125,        1,    38016, 0xf0c5bdd8
0,        126,        126,        1,    38016, 0xb21aa102
0,        127,        127,        1,    38016, 0xb35bbec2
0,        128,        128,        1,    38016, 0x7efad1ce
0,        129,        129,        1,    38016, 0x04e3d71d
0,        130,        130,        1,    38016, 0x901ff71b
0,        131,        131,        1,    38016, 0xc6c6e640
0,        132,        132,        1,    38016, 0xd292d5d3
0,        133,        133,        1,    38016, 0x2ce4e3fe
0,        134,        134,        1,    38016, 0xe7fedf8a
0,        135,        135,        1,    38016, 0x20e5a1eb
0,        136,        136,        1,    38016, 0xbc39be76
0,        137,        137,        1,    38016, 0xf749b4dd
0,        138,        138,        1,    38016, 0xbc3f97a4
0,        139,        139,        1,    38016, 0xa058a244
0,        140,        140,        1,    38016, 0x77eb961b
0,        141,        141,        1,    38016, 0xa92e7f25
0,        142,        142,        1,    38016, 0xc75e796f
0,        143,        143,        1,    38016, 0x114c79bd
0,        144,        144,        1,    38016, 0x3fb96da3
0,        145,        145,        1,    38016, 0x1c6f87b8
0,        146,        146,        1,    38016, 0x25567ae4
0,        147,        147,        1,    38016, 0xf5dd42b2
0,        148,        148,        1,    38016, 0xe6172d0c
0,        149,        149,        1,    38016, 0xcec0fd48
0,        150,        150,        1,    38016, 0x0d27b12d
0,        151,        151,        1,    38016, 0x3ec7cd24
0,        152,        152,        1,    38016, 0xb2dccabe
0,        153,        153,        1,    38016, 0xa977a844
0,        154,        154,        1,    38016, 0x4b3bbfed
0,        155,        155,        1,    38016, 0xed6dd876
0,        156,        156,        1,    38016, 0x751bd34e
0,        157,        157,        1,    38016, 0x80160cf9
0,        158,        158,        1,    38016, 0xfbf53be8
0,        159,        159,        1,    38016, 0x726e4f3b
0,        160,        160,        1,    38016, 0x8ebb730c
0,        161,        161,        1,    38016, 0x2c0c5fe6
0,        162,        162,        1,    38016, 0x450940c0
0,        163,        163,        1,    38016, 0xeed63ff8
0,        164,        164,        1,    38016, 0x6f233d75
0,        165,        165,        1,    38016, 0x98d2f70e
0,        166,        166,        1,    38016, 0x8d38f2e8
0,        167,        167,        1,    38016, 0x905dcbc9
0,        168,        168,        1,    38016, 0x68c3a0f7
0,        169,        169,        1,    38016, 0x4bb8a40c
0,        170,        170,        1,    38016, 0x3650b08e
0,        171,        171,        1,    38016, 0x3c3bbfd7
0,        172,        172,        1,    38016, 0xcbc9da56
0,        173,        173,        1,    38016, 0x576de6cd
0,        174,        174,        1,    38016, 0x95f5c8c1
0,        175,        175,        1,    38016, 0xbbcaacc8
0,        176,        176,        1,    38016, 0x1b547ba4
0,        177,        177,        1,    38016, 0x8f5238b2
0,        178,        178,        1,    38016, 0x4c0f35c4
0,        179,        179,        1,    38016, 0x894f278d
0,        180,        180,        1,    38016, 0x3bb3ecd3
0,        181,        181,        1,    38016, 0x177bf317
0,        182,        182,        1,    38016, 0xdb1fdada
0,        183,        183,        1,    38016, 0xec27cc28
0,        184,        184,        1,    38016, 0x6a12eec7
0,        185,        185,        1,    38016, 0x0168ff3f
0,        186,        186,        1,    38016, 0x3fa206ba
0,        187,        187,        1,    38016, 0x47cc30b5
0,        188,        188,        1,    38016, 0xb2d02ddd
0,        189,        189,        1,    38016, 0x306626bb
0,        190,        190,        1,    38016, 0xfb06eb5b
0,        191,        191,        1,    38016, 0x5881b60e
0,        192,        192,        1,    38016, 0xd58caaf8
0,        193,        193,        1,    38016, 0x840bdd0c
0,        194,        194,        1,    38016, 0xb71efac1
0,        195,        195,        1,    38016, 0x25961ad1
0,        196,        196,        1,    38016, 0xbec156eb
0,        197,        197,        1,    38016, 0xe2d1695c
0,        198,        198,        1,    38016, 0x3fbe83d4
0,        199,        199,        1,    38016, 0x10d8afe2
0,        200,        200,        1,    38016, 0xa61fb9aa
0,        201,        201,        1,    38016, 0x0c20be29
0,        202,        202,        1,    38016, 0xc273cdd4
0,        203,        203,        1,    38016, 0xfb21cfa0
0,        204,        204,        1,    38016, 0xb1ccc643
0,        205,        205,        1,    38016, 0x30f5d7a2
0,        206,        206,        1,    38016, 0xe742da0f
0,        207,        207,        1,    38016, 0x0a08d6a3
0,        208,        208,        1,    38016, 0x85c4cf6c
0,        209,        209,        1,    38016, 0xc117b8f4
0,        210,        210,        1,    38016, 0x39305ec1
0,        211,        211,        1,    38016, 0xf2867b2d
0,        212,        212,        1,    38016, 0x81147a22
0,        213,        213,        1,    38016, 0x308b59c3
0,        214,        214,        1,    38016, 0xfd076bbd
0,        215,        215,        1,    38016, 0x11bf57f5
0,        216,        216,        1,    38016, 0x8c103fb7
0,        217,        217,        1,    38016, 0x4f5e5a48
0,        218,        218,        1,    38016, 0xa0fd54dc
0,        219,        219,        1,    38016, 0x69d7429b
0,        220,        220,        1,    38016, 0x93154a7c
0,        221,        221,        1,    38016, 0xc72e3995
0,        222,        222,        1,    38016, 0x86541ae0
0,        223,        223,        1,    38016, 0xa9c93120
0,        224,        224,        1,    38016, 0x602d368a
0,        225,        225,        1,    38016, 0x6fca13cb
0,        226,        226,        1,    38016, 0x314f3702
0,        227,        227,        1,    38016, 0x4d1647bd
0,        228,        228,        1,    38016, 0x73673c96
0,        229,        229,        1,    38016, 0x62897c6f
0,        230,        230,        1,    38016, 0x918e9a7d
0,        231,        231,        1,    38016, 0x9fb9ad4f
0,        232,        232,        1,    38016, 0xc4c30339
0,        233,        233,        1,    38016, 0x137017df
0,        234,        234,        1,    38016, 0xa98a1b61
0,        235,        235,        1,    38016, 0xf74c4b4f
0,        236,        236,        1,    38016, 0x3eac5cb1
0,        237,        237,        1,    38016, 0x5d403e50
0,        238,        238,        1,    38016, 0xa33a4eb6
0,        239,        239,        1,    38016, 0x3f0a13fb
0,        240,        240,        1,    38016, 0x8b11e5a8
0,        241,        241,        1,    38016, 0x536bca4b
0,        242,        242,        1,    38016, 0xe1daa789
0,        243,        243,        1,    38016, 0xab37f6d1
0,        244,        244,        1,    38016, 0xbefe6f58
0,        245,        245,        1,    38016, 0xa5fdd2ff
0,        246,        246,        1,    38016, 0x6065ec01
0,        247,        247,        1,    38016, 0x939dd93a
0,        248,        248,        1,    38016, 0x3a7593d5
0,        249,        249,        1,    38016, 0x30fe19fe
0,        250,        250,        1,    38016, 0xb507c21c
0,        251,        251,        1,    38016, 0xf47f73ac
0,        252,        252,        1,    38016, 0xe9fc669a
0,        253,        253,        1,    38016, 0x2b85d19a
0,        254,        254,        1,    38016, 0x57033999
0,        255,        255,        1,    38016, 0x0e5eca3b
0,        256,        256,        1,    38016, 0x6a7bda2c
0,        257,        257,        1,    38016, 0x3517638d
0,        258,        258,        1,    38016, 0x1f5432e3
0,        259,        259,        1,    38016, 0x584d4c96
0,        260,        260,        1,    38016, 0x92474c0c
0,        261,        261,        1,    38016, 0x8c5e44a5
0,        262,        262,        1,    38016, 0x07dd64d4
0,        263,        263,        1,    38016, 0x828d632b
0,        264,        264,        1,    38016, 0x142254b6
0,        265,        265,        1,    38016, 0x8f9b60a4
0,        266,        266,        1,    38016, 0x44f745dd
0,        267,        267,        1,    38016, 0xc3321666
0,        268,        268,        1,    38016, 0x95520396
0,        269,        269,        1,    38016, 0x3eb3de27
0,        270,        270,        1,    38016, 0x0ce3a7ca
0,        271,        271,        1,    38016, 0x58258838
0,        272,        272,        1,    38016, 0x5725627a
0,        273,        273,        1,    38016, 0x901907ab
0,        274,        274,        1,    38016, 0xf965da2f
0,        275,        275,        1,    38016, 0xf542bae9
0,        276,        276,        1,    38016, 0x3dc4b3c3
0,        277,        277,        1,    38016, 0x8a1dd1e9
0,        278,        278,        1,    38016, 0x4f6ef803
0,        279,        279,        1,    38016, 0xde384800
0,        280,        280,        1,    38016, 0x7251116f
0,        281,        281,        1,    38016, 0x89f9e1ca
0,        282,        282,        1,    38016, 0xc9818624
0,        283,        283,        1,    38016, 0x30e391a6
0,        284,        284,        1,    38016, 0x7aab6887
0,        285,        285,        1,    38016, 0x0a34a67f
0,        286,        286,        1,    38016, 0xe1258086
0,        287,        287,        1,    38016, 0x5b16a887
0,        288,        288,        1,    38016, 0x3297a135
0,        289,        289,        1,    38016, 0x45a77236
0,        290,        290,        1,    38016, 0xa414013a
0,        291,        291,        1,    38016, 0xfab52c7e
0,        292,        292,        1,    38016, 0x9074aca1
0,        293,        293,        1,    38016, 0x843ad8a6
0,        294,        294,        1,    38016, 0xccc63573
0,        295,        295,        1,    38016, 0x3ba52a5f
0,        296,        296,        1,    38016, 0x2f7b0236
0,        297,        297,        1,    38016, 0x0ad407ec
0,        298,        298,        1,    38016, 0x42082369
0,        299,        299,        1,    38016, 0x5a9d3f63
